PathFileType	4	(X/Y/Z)	/Users/itak/Documents/Research/Walk-IL/dataset/trc/00233_00009.trc
DataRate	CameraRate	NumFrames	NumMarkers	Units	OrigDataRate	OrigDataStartFrame	OrigNumFrames
100.000000	100.000000	4	53	mm	100.000000	214	857
Frame#	Time	RPSI			LPSI			L3			STRN			T10			C7			CLAV			RBAK			LBAK			LSHO			LUPA			LAEL			LAOL			LWTS			LWPS			LFRA			LIFD			LHPS			LHTS			RSHO			RUPA			RAEL			RAOL			RWTS			RWPS			RFRA			RIFD			RHTS			RHPS			RBHD			LFHD			RFHD			LBHD			LHIP			RHIP			RASI			LASI			LKNE			LTHI			LANK			LTIP			LTOE			LMT1			LMT5			LHEE			RKNE			RTHI			RANK			RTIP			RTOE			RMT1			RMT5			RHEE			
		X1	Y1	Z1	X2	Y2	Z2	X3	Y3	Z3	X4	Y4	Z4	X5	Y5	Z5	X6	Y6	Z6	X7	Y7	Z7	X8	Y8	Z8	X9	Y9	Z9	X10	Y10	Z10	X11	Y11	Z11	X12	Y12	Z12	X13	Y13	Z13	X14	Y14	Z14	X15	Y15	Z15	X16	Y16	Z16	X17	Y17	Z17	X18	Y18	Z18	X19	Y19	Z19	X20	Y20	Z20	X21	Y21	Z21	X22	Y22	Z22	X23	Y23	Z23	X24	Y24	Z24	X25	Y25	Z25	X26	Y26	Z26	X27	Y27	Z27	X28	Y28	Z28	X29	Y29	Z29	X30	Y30	Z30	X31	Y31	Z31	X32	Y32	Z32	X33	Y33	Z33	X34	Y34	Z34	X35	Y35	Z35	X36	Y36	Z36	X37	Y37	Z37	X38	Y38	Z38	X39	Y39	Z39	X40	Y40	Z40	X41	Y41	Z41	X42	Y42	Z42	X43	Y43	Z43	X44	Y44	Z44	X45	Y45	Z45	X46	Y46	Z46	X47	Y47	Z47	X48	Y48	Z48	X49	Y49	Z49	X50	Y50	Z50	X51	Y51	Z51	X52	Y52	Z52	X53	Y53	Z53	

215	2.14	269.620849609375	1031.976318359375	654.2734375	241.5110321044922	1033.828369140625	535.6837158203125	250.2344512939453	1117.2685546875	576.6258544921875	501.5571899414062	1285.169311523438	510.4627380371094	252.7776489257812	1245.502563476562	581.2769165039062	332.8554077148438	1502.067749023438	557.4435424804688	485.6787109375	1404.547241210938	518.319580078125	267.6926574707031	1368.395263671875	650.1441650390625	281.701416015625	1465.777709960938	456.4966125488281	354.4201354980469	1459.8974609375	379.4533386230469	295.9296264648438	1345.82080078125	309.7018127441406	287.2424621582031	1135.1708984375	280.0362854003906	226.5288696289062	1122.980712890625	343.4561462402344	379.5664367675781	899.0831909179688	316.2038879394531	336.8973693847656	883.8756103515625	244.8599853515625	301.0250244140625	1027.7353515625	261.8934326171875	374.1556396484375	705.8749389648438	310.0116577148438	351.0269165039062	794.7874145507812	245.8182220458984	404.3606567382812	797.024169921875	288.4983825683594	430.2666015625	1452.47314453125	707.6533813476562	424.3848876953125	1388.58349609375	777.5660400390625	390.5377502441406	1112.306274414062	830.7042846679688	332.8440856933594	1107.1484375	754.9855346679688	486.7600708007812	883.0299682617188	764.229248046875	453.8246154785156	876.380859375	841.0559692382812	412.9105834960938	1041.6904296875	839.0667114257812	479.2029724121094	690.3763427734375	764.4818725585938	517.3274536132812	759.42822265625	774.663818359375	481.1111755371094	765.5723876953125	836.8115234375	423.6557312011719	1659.969848632812	601.9613037109375	562.9095458984375	1664.369506835938	421.9693603515625	608.1329956054688	1663.85791015625	510.8944702148438	402.7077941894531	1658.4931640625	462.2020263671875	301.2942199707031	961.1250610351562	375.736572265625	394.6239013671875	995.8255615234375	732.1051635742188	475.8688659667969	1030.44677734375	668.1288452148438	412.163818359375	1001.782836914062	394.7227478027344	306.7847900390625	479.478271484375	440.5963745117188	314.0977783203125	621.2291259765625	402.8549194335938	86.48564147949219	48.50097274780273	468.9758911132812	197.4513244628906	273.0018005371094	446.9562683105469	287.9068298339844	37.70600509643555	558.5853881835938	212.2660827636719	37.48553085327148	587.6318359375	214.9409027099609	36.62739562988281	472.0722351074219	17.47434997558594	67.83240509033203	508.1225891113281	547.6432495117188	528.6736450195312	644.2410888671875	496.7622375488281	783.4800415039062	707.99755859375	528.887451171875	29.20870780944824	674.5546264648438	567.5905151367188	406.6941223144531	623.9575805664062	674.7927856445312	50.70534515380859	517.97705078125	604.6610717773438	44.48585891723633	514.5521240234375	632.6987915039062	29.91676139831543	629.8062133789062	444.711669921875	29.28671646118164	660.8372192382812	
216	2.15	275.9079284667969	1032.559692382812	655.0496826171875	246.7195587158203	1034.202758789062	536.81884765625	255.8845520019531	1117.755249023438	577.8140258789062	506.5663146972656	1285.795654296875	509.4247741699219	258.5144958496094	1245.9169921875	582.7852783203125	338.2484741210938	1502.575927734375	558.8175659179688	490.6595458984375	1405.124267578125	517.6581420898438	274.2602233886719	1368.712524414062	651.9985961914062	286.0372314453125	1466.442260742188	458.3652038574219	357.7869262695312	1460.775268554688	380.3989868164062	298.2427978515625	1346.742919921875	311.3353576660156	288.1900634765625	1136.296508789062	281.95947265625	229.1128540039062	1123.982543945312	346.7047119140625	381.2088623046875	899.996826171875	314.8348693847656	336.6589660644531	885.1229858398438	244.5615234375	301.451171875	1028.952758789062	262.9711303710938	375.8184509277344	706.7213134765625	307.9420471191406	350.6957092285156	795.9830322265625	244.7691040039062	405.1221008300781	798.0127563476562	286.0480041503906	437.5098266601562	1452.7216796875	707.6964111328125	432.6235046386719	1388.739990234375	777.5678100585938	400.0257873535156	1112.30712890625	830.6767578125	341.3126831054688	1107.177856445312	755.7188110351562	495.7242431640625	883.2852783203125	762.78271484375	463.7884521484375	876.5314331054688	840.0416870117188	422.6703186035156	1041.75439453125	838.6897583007812	488.4070434570312	690.5886840820312	763.0255737304688	526.6095581054688	759.7250366210938	772.7316284179688	491.2019958496094	765.7779541015625	835.3689575195312	429.7411804199219	1660.516479492188	602.4279174804688	566.812744140625	1665.057006835938	420.7638244628906	613.1098022460938	1664.406616210938	509.1394348144531	407.114013671875	1659.196655273438	462.9450378417969	305.1482849121094	961.3180541992188	376.5023498535156	401.7468872070312	996.4740600585938	731.82470703125	482.4830627441406	1031.00634765625	667.162353515625	416.0879211425781	1002.2119140625	394.4073181152344	313.5834655761719	479.3158874511719	440.5432739257812	319.6449584960938	621.244873046875	403.3754272460938	87.10719299316406	51.00580978393555	469.54736328125	201.4054565429688	274.178955078125	447.1266479492188	288.3927307128906	37.63772201538086	558.4464721679688	212.8760223388672	38.22848129272461	587.6434936523438	215.2317504882812	36.9439697265625	472.3680114746094	18.62512397766113	71.76612854003906	508.93310546875	551.5276489257812	528.346435546875	643.837646484375	502.876953125	783.6915893554688	707.4486694335938	529.1949462890625	29.23736572265625	674.681884765625	570.4714965820312	406.2191772460938	623.5358276367188	675.1920166015625	49.23665237426758	517.723388671875	605.0599975585938	43.74503707885742	514.52490234375	633.015869140625	29.67418098449707	630.0780029296875	444.9052734375	29.55818557739258	660.9027099609375	
217	2.16	282.2336730957031	1033.269287109375	655.833251953125	251.8855743408203	1034.675537109375	537.9745483398438	261.505126953125	1118.359252929688	579.019287109375	511.5070190429688	1286.533813476562	508.2868957519531	264.3167724609375	1246.445678710938	584.2448120117188	343.6426696777344	1503.177490234375	560.1369018554688	495.6017456054688	1405.806884765625	516.9322509765625	280.8217468261719	1369.117553710938	653.7503051757812	290.4033508300781	1467.257080078125	460.1431884765625	361.1557922363281	1461.783081054688	381.2953491210938	300.5728149414062	1347.800659179688	312.934814453125	289.1493225097656	1137.568359375	283.8705444335938	231.6832122802734	1125.134765625	349.8484802246094	382.8236083984375	901.080810546875	313.5811767578125	336.4507751464844	886.4930419921875	244.4003448486328	301.8994750976562	1030.303588867188	264.0917663574219	377.4269714355469	707.7586669921875	306.0903625488281	350.4180297851562	797.3031616210938	243.9066162109375	405.885009765625	799.1777954101562	283.7909545898438	444.7146911621094	1453.075439453125	707.6432495117188	440.8170166015625	1389.019165039062	777.4735107421875	409.5022583007812	1112.44140625	830.5905151367188	349.8255920410156	1107.307983398438	756.388427734375	504.8193664550781	883.7357788085938	761.3241577148438	473.8219909667969	876.8364868164062	838.9805297851562	432.404541015625	1041.953369140625	838.2659912109375	497.9573669433594	691.000732421875	761.5330200195312	536.1394653320312	760.2517700195312	770.8043212890625	501.5038757324219	766.1726684570312	833.884033203125	435.8001403808594	1661.15234375	602.8419799804688	570.703369140625	1665.853637695312	419.5522155761719	618.0556030273438	1665.04052734375	507.3736572265625	411.5233459472656	1660.019165039062	463.6448364257812	308.9277648925781	961.5855712890625	377.3114624023438	408.8039245605469	997.2147827148438	731.507568359375	489.0607299804688	1031.654541015625	666.1052856445312	419.9125671386719	1002.706848144531	394.047607421875	320.8257446289062	479.1849365234375	440.2851867675781	325.4945678710938	621.318359375	403.7888488769531	87.85739135742188	53.78875732421875	470.1217346191406	205.6545867919922	275.5482482910156	447.1936340332031	288.9048156738281	37.57704925537109	558.3273315429688	213.5789794921875	39.10509872436523	587.6802978515625	215.5803680419922	37.28021240234375	472.7197570800781	20.02434539794922	76.14450073242188	509.7435302734375	555.0151977539062	528.0026245117188	643.63134765625	508.8030090332031	783.8501586914062	707.0692749023438	529.4654541015625	29.24467277526855	674.7835693359375	573.0175170898438	405.7533874511719	623.3219604492188	675.4235229492188	48.02396392822266	517.4324951171875	605.2975463867188	43.16381072998047	514.4346923828125	633.2399291992188	29.55019187927246	630.25341796875	445.0614624023438	29.7293586730957	660.9998779296875	
218	2.17	288.608642578125	1034.094848632812	656.6341552734375	257.0104675292969	1035.243530273438	539.1586303710938	267.0891418457031	1119.061645507812	580.2587280273438	516.366455078125	1287.369873046875	507.0415344238281	270.1922607421875	1247.0693359375	585.6796264648438	349.0360412597656	1503.854370117188	561.3889770507812	500.4920654296875	1406.583984375	516.1312866210938	287.3810119628906	1369.5966796875	655.4046020507812	294.7750549316406	1468.193969726562	461.8406677246094	364.5035095214844	1462.905517578125	382.1414489746094	302.8863830566406	1348.981811523438	314.508544921875	290.1500854492188	1138.96435546875	285.7313537597656	234.2213287353516	1126.423950195312	352.8306884765625	384.4112548828125	902.3123168945312	312.4737548828125	336.3097534179688	887.963134765625	244.3740997314453	302.4007568359375	1031.766967773438	265.23779296875	378.8681030273438	708.943603515625	304.4571533203125	350.224853515625	798.7250366210938	243.2426452636719	406.6592712402344	800.4906616210938	281.7789611816406	451.8752746582031	1453.51953125	707.4852294921875	448.9532775878906	1389.4052734375	777.276611328125	418.9541931152344	1112.69775390625	830.4500732421875	358.3613586425781	1107.51513671875	757.0008544921875	514.029052734375	884.3687744140625	759.8477172851562	483.9231567382812	877.284912109375	837.867919921875	442.0977783203125	1042.276123046875	837.7969360351562	507.8347778320312	691.6014404296875	759.98876953125	545.9063110351562	760.9956665039062	768.8679809570312	511.9917297363281	766.7412719726562	832.3473510742188	441.8199157714844	1661.855224609375	603.1967163085938	574.5753173828125	1666.747314453125	418.3337707519531	622.960693359375	1665.744384765625	505.5977783203125	415.9238586425781	1660.946411132812	464.2940368652344	312.6104431152344	961.9192504882812	378.1598510742188	415.7897644042969	998.041259765625	731.16357421875	495.5861511230469	1032.390625	664.97216796875	423.6351013183594	1003.258911132812	393.6624755859375	328.4808349609375	479.0831298828125	439.7825927734375	331.6343994140625	621.4432983398438	404.0554809570312	88.7493896484375	56.83660888671875	470.6991577148438	210.1798248291016	277.1254577636719	447.1309814453125	289.4296264648438	37.5153923034668	558.2366943359375	214.3849792480469	40.11898422241211	587.7548217773438	215.9826049804688	37.61173248291016	473.14013671875	21.69805908203125	80.95941925048828	510.5462341308594	558.1428833007812	527.6583251953125	643.5868530273438	514.553466796875	783.9951171875	706.787109375	529.6882934570312	29.22163963317871	674.8565063476562	575.2569580078125	405.3052673339844	623.2860717773438	675.5245971679688	47.00548553466797	517.1172485351562	605.407958984375	42.69243240356445	514.2994384765625	633.3888549804688	29.50439643859863	630.3538208007812	445.1844787597656	29.82065963745117	661.1099853515625	
